<svg width="594" height="206" viewBox="0 0 594 206" fill="none" xmlns="http://www.w3.org/2000/svg">
<g id="Group 1">
<path id="Teech" d="M101.742 60.4531H61.4531V143H43.1719V60.4531H2.8125V42.1719H101.742V60.4531ZM186.961 92.1641C186.961 94.6953 186.516 97.4375 185.625 100.391C184.734 103.297 183.281 106.016 181.266 108.547C179.297 111.031 176.695 113.117 173.461 114.805C170.273 116.492 166.383 117.336 161.789 117.336H128.812V99.9688H161.789C164.273 99.9688 166.195 99.2188 167.555 97.7188C168.914 96.1719 169.594 94.2734 169.594 92.0234C169.594 89.6328 168.82 87.7578 167.273 86.3984C165.773 85.0391 163.945 84.3594 161.789 84.3594H128.812C126.328 84.3594 124.406 85.1328 123.047 86.6797C121.688 88.1797 121.008 90.0547 121.008 92.3047V117.828C121.008 120.266 121.758 122.164 123.258 123.523C124.805 124.883 126.703 125.562 128.953 125.562H161.789V143H128.812C126.281 143 123.539 142.555 120.586 141.664C117.68 140.773 114.961 139.344 112.43 137.375C109.945 135.359 107.859 132.758 106.172 129.57C104.484 126.336 103.641 122.422 103.641 117.828V92.1641C103.641 89.6328 104.086 86.9141 104.977 84.0078C105.867 81.0547 107.297 78.3359 109.266 75.8516C111.281 73.3203 113.883 71.2109 117.07 69.5234C120.305 67.8359 124.219 66.9922 128.812 66.9922H161.789C164.32 66.9922 167.039 67.4375 169.945 68.3281C172.898 69.2188 175.617 70.6719 178.102 72.6875C180.633 74.6562 182.742 77.2578 184.43 80.4922C186.117 83.6797 186.961 87.5703 186.961 92.1641ZM281.039 92.1641C281.039 94.6953 280.594 97.4375 279.703 100.391C278.812 103.297 277.359 106.016 275.344 108.547C273.375 111.031 270.773 113.117 267.539 114.805C264.352 116.492 260.461 117.336 255.867 117.336H222.891V99.9688H255.867C258.352 99.9688 260.273 99.2188 261.633 97.7188C262.992 96.1719 263.672 94.2734 263.672 92.0234C263.672 89.6328 262.898 87.7578 261.352 86.3984C259.852 85.0391 258.023 84.3594 255.867 84.3594H222.891C220.406 84.3594 218.484 85.1328 217.125 86.6797C215.766 88.1797 215.086 90.0547 215.086 92.3047V117.828C215.086 120.266 215.836 122.164 217.336 123.523C218.883 124.883 220.781 125.562 223.031 125.562H255.867V143H222.891C220.359 143 217.617 142.555 214.664 141.664C211.758 140.773 209.039 139.344 206.508 137.375C204.023 135.359 201.938 132.758 200.25 129.57C198.562 126.336 197.719 122.422 197.719 117.828V92.1641C197.719 89.6328 198.164 86.9141 199.055 84.0078C199.945 81.0547 201.375 78.3359 203.344 75.8516C205.359 73.3203 207.961 71.2109 211.148 69.5234C214.383 67.8359 218.297 66.9922 222.891 66.9922H255.867C258.398 66.9922 261.117 67.4375 264.023 68.3281C266.977 69.2188 269.695 70.6719 272.18 72.6875C274.711 74.6562 276.82 77.2578 278.508 80.4922C280.195 83.6797 281.039 87.5703 281.039 92.1641ZM366.961 143H317.391C314.859 143 312.094 142.555 309.094 141.664C306.094 140.773 303.305 139.32 300.727 137.305C298.195 135.242 296.062 132.594 294.328 129.359C292.641 126.078 291.797 122.07 291.797 117.336V92.5859C291.797 90.8516 291.984 89.0234 292.359 87.1016C292.781 85.1797 293.414 83.2812 294.258 81.4062C295.102 79.4844 296.18 77.6562 297.492 75.9219C298.852 74.1875 300.469 72.6641 302.344 71.3516C304.266 70.0391 306.469 68.9844 308.953 68.1875C311.438 67.3906 314.25 66.9922 317.391 66.9922H366.961V85.2734H317.391C315 85.2734 313.172 85.8828 311.906 87.1016C310.688 88.3203 310.078 90.1953 310.078 92.7266V117.336C310.078 119.727 310.711 121.555 311.977 122.82C313.242 124.086 315.094 124.719 317.531 124.719H366.961V143ZM466.594 143H448.312V92.5859C448.312 90.1953 447.703 88.3906 446.484 87.1719C445.266 85.9062 443.438 85.2734 441 85.2734H408.023V66.9922H441C442.734 66.9922 444.562 67.2031 446.484 67.625C448.406 68 450.305 68.6094 452.18 69.4531C454.102 70.2969 455.93 71.3984 457.664 72.7578C459.398 74.0703 460.922 75.6875 462.234 77.6094C463.547 79.4844 464.602 81.6641 465.398 84.1484C466.195 86.6328 466.594 89.4453 466.594 92.5859V143ZM400.641 143H382.359V34.8594H400.641V143Z" fill="#04D361"/>
<path id="r" d="M549.094 85.2734H507.961C505.477 85.2734 503.602 85.9062 502.336 87.1719C501.07 88.3906 500.438 90.1953 500.438 92.5859V143H482.156V92.5859C482.156 89.4453 482.555 86.6328 483.352 84.1484C484.148 81.6641 485.203 79.4844 486.516 77.6094C487.875 75.6875 489.422 74.0703 491.156 72.7578C492.891 71.3984 494.695 70.2969 496.57 69.4531C498.492 68.6094 500.414 68 502.336 67.625C504.305 67.2031 506.133 66.9922 507.82 66.9922H549.094V85.2734Z" fill="#04D361"/>
</g>
</svg>
