<svg width="548" height="109" viewBox="0 0 548 109" fill="none" xmlns="http://www.w3.org/2000/svg">
<path id="Teechr" d="M99.7422 26.4531H59.4531V109H41.1719V26.4531H0.8125V8.17188H99.7422V26.4531ZM184.961 58.1641C184.961 60.6953 184.516 63.4375 183.625 66.3906C182.734 69.2969 181.281 72.0156 179.266 74.5469C177.297 77.0312 174.695 79.1172 171.461 80.8047C168.273 82.4922 164.383 83.3359 159.789 83.3359H126.812V65.9688H159.789C162.273 65.9688 164.195 65.2188 165.555 63.7188C166.914 62.1719 167.594 60.2734 167.594 58.0234C167.594 55.6328 166.82 53.7578 165.273 52.3984C163.773 51.0391 161.945 50.3594 159.789 50.3594H126.812C124.328 50.3594 122.406 51.1328 121.047 52.6797C119.688 54.1797 119.008 56.0547 119.008 58.3047V83.8281C119.008 86.2656 119.758 88.1641 121.258 89.5234C122.805 90.8828 124.703 91.5625 126.953 91.5625H159.789V109H126.812C124.281 109 121.539 108.555 118.586 107.664C115.68 106.773 112.961 105.344 110.43 103.375C107.945 101.359 105.859 98.7578 104.172 95.5703C102.484 92.3359 101.641 88.4219 101.641 83.8281V58.1641C101.641 55.6328 102.086 52.9141 102.977 50.0078C103.867 47.0547 105.297 44.3359 107.266 41.8516C109.281 39.3203 111.883 37.2109 115.07 35.5234C118.305 33.8359 122.219 32.9922 126.812 32.9922H159.789C162.32 32.9922 165.039 33.4375 167.945 34.3281C170.898 35.2188 173.617 36.6719 176.102 38.6875C178.633 40.6562 180.742 43.2578 182.43 46.4922C184.117 49.6797 184.961 53.5703 184.961 58.1641ZM279.039 58.1641C279.039 60.6953 278.594 63.4375 277.703 66.3906C276.812 69.2969 275.359 72.0156 273.344 74.5469C271.375 77.0312 268.773 79.1172 265.539 80.8047C262.352 82.4922 258.461 83.3359 253.867 83.3359H220.891V65.9688H253.867C256.352 65.9688 258.273 65.2188 259.633 63.7188C260.992 62.1719 261.672 60.2734 261.672 58.0234C261.672 55.6328 260.898 53.7578 259.352 52.3984C257.852 51.0391 256.023 50.3594 253.867 50.3594H220.891C218.406 50.3594 216.484 51.1328 215.125 52.6797C213.766 54.1797 213.086 56.0547 213.086 58.3047V83.8281C213.086 86.2656 213.836 88.1641 215.336 89.5234C216.883 90.8828 218.781 91.5625 221.031 91.5625H253.867V109H220.891C218.359 109 215.617 108.555 212.664 107.664C209.758 106.773 207.039 105.344 204.508 103.375C202.023 101.359 199.938 98.7578 198.25 95.5703C196.562 92.3359 195.719 88.4219 195.719 83.8281V58.1641C195.719 55.6328 196.164 52.9141 197.055 50.0078C197.945 47.0547 199.375 44.3359 201.344 41.8516C203.359 39.3203 205.961 37.2109 209.148 35.5234C212.383 33.8359 216.297 32.9922 220.891 32.9922H253.867C256.398 32.9922 259.117 33.4375 262.023 34.3281C264.977 35.2188 267.695 36.6719 270.18 38.6875C272.711 40.6562 274.82 43.2578 276.508 46.4922C278.195 49.6797 279.039 53.5703 279.039 58.1641ZM364.961 109H315.391C312.859 109 310.094 108.555 307.094 107.664C304.094 106.773 301.305 105.32 298.727 103.305C296.195 101.242 294.062 98.5938 292.328 95.3594C290.641 92.0781 289.797 88.0703 289.797 83.3359V58.5859C289.797 56.8516 289.984 55.0234 290.359 53.1016C290.781 51.1797 291.414 49.2812 292.258 47.4062C293.102 45.4844 294.18 43.6562 295.492 41.9219C296.852 40.1875 298.469 38.6641 300.344 37.3516C302.266 36.0391 304.469 34.9844 306.953 34.1875C309.438 33.3906 312.25 32.9922 315.391 32.9922H364.961V51.2734H315.391C313 51.2734 311.172 51.8828 309.906 53.1016C308.688 54.3203 308.078 56.1953 308.078 58.7266V83.3359C308.078 85.7266 308.711 87.5547 309.977 88.8203C311.242 90.0859 313.094 90.7188 315.531 90.7188H364.961V109ZM464.594 109H446.312V58.5859C446.312 56.1953 445.703 54.3906 444.484 53.1719C443.266 51.9062 441.438 51.2734 439 51.2734H406.023V32.9922H439C440.734 32.9922 442.562 33.2031 444.484 33.625C446.406 34 448.305 34.6094 450.18 35.4531C452.102 36.2969 453.93 37.3984 455.664 38.7578C457.398 40.0703 458.922 41.6875 460.234 43.6094C461.547 45.4844 462.602 47.6641 463.398 50.1484C464.195 52.6328 464.594 55.4453 464.594 58.5859V109ZM398.641 109H380.359V0.859375H398.641V109ZM547.844 51.2734H506.711C504.227 51.2734 502.352 51.9062 501.086 53.1719C499.82 54.3906 499.188 56.1953 499.188 58.5859V109H480.906V58.5859C480.906 55.4453 481.305 52.6328 482.102 50.1484C482.898 47.6641 483.953 45.4844 485.266 43.6094C486.625 41.6875 488.172 40.0703 489.906 38.7578C491.641 37.3984 493.445 36.2969 495.32 35.4531C497.242 34.6094 499.164 34 501.086 33.625C503.055 33.2031 504.883 32.9922 506.57 32.9922H547.844V51.2734Z" fill="white"/>
</svg>
